<?xml version="1.0" standalone="no"?>
<!DOCTYPE svg PUBLIC "-//W3C//DTD SVG 20010904//EN"
 "http://www.w3.org/TR/2001/REC-SVG-20010904/DTD/svg10.dtd">
<svg version="1.0" xmlns="http://www.w3.org/2000/svg"
 width="264.000000pt" height="264.000000pt" viewBox="0 0 264.000000 264.000000"
 preserveAspectRatio="xMidYMid meet">
<metadata>
Created by potrace 1.11, written by Peter Selinger 2001-2013
</metadata>
<g transform="translate(0.000000,264.000000) scale(0.100000,-0.100000)"
fill="#000000" stroke="none">
<path d="M1728 2456 c-10 -7 -18 -17 -18 -21 0 -4 8 -1 18 6 15 13 16 12 3 -4
-11 -14 -16 -15 -29 -5 -13 11 -14 10 -3 -10 10 -18 10 -27 0 -38 -6 -8 -8
-14 -4 -14 4 0 2 -7 -5 -15 -7 -9 -10 -18 -6 -22 3 -3 6 0 6 7 0 20 14 2 15
-20 1 -15 -2 -17 -11 -9 -9 7 -12 6 -9 -8 1 -10 9 -17 16 -15 8 2 6 -4 -5 -17
-22 -24 -35 -29 -16 -6 9 10 9 15 1 15 -11 0 -13 -7 -14 -48 0 -18 -2 -20 -14
-11 -10 9 -12 9 -8 -3 3 -8 -1 -21 -9 -28 -9 -7 -13 -16 -10 -21 3 -5 -2 -6
-11 -3 -11 5 -14 2 -9 -10 4 -11 1 -16 -11 -16 -10 0 -14 5 -9 13 4 6 3 8 -1
4 -9 -7 -15 -28 -17 -54 -1 -7 -5 -13 -10 -13 -5 0 -6 -5 -2 -12 4 -7 3 -8 -4
-4 -6 4 -9 13 -5 21 3 8 0 15 -6 15 -6 0 -10 -3 -10 -7 3 -21 -3 -31 -22 -36
-15 -4 -20 -11 -15 -23 6 -15 4 -15 -11 -3 -15 12 -16 12 -10 -4 4 -11 1 -20
-8 -23 -9 -4 -13 -16 -11 -34 2 -21 -1 -27 -13 -25 -9 1 -19 -2 -22 -7 -3 -5
-9 0 -12 11 -5 20 11 25 24 8 3 -5 9 -2 12 6 4 10 -2 13 -18 13 -13 -1 -27 -5
-31 -9 -4 -4 -12 -7 -18 -7 -6 0 -5 5 2 12 7 7 12 17 12 22 0 6 -5 4 -10 -4
-8 -12 -10 -12 -10 -1 0 11 -3 11 -17 0 -11 -10 -14 -10 -9 -1 4 7 2 12 -8 12
-8 0 -17 -6 -20 -12 -4 -7 -4 -2 -2 12 5 24 4 24 -9 6 -22 -29 -47 -30 -40 -3
5 21 5 21 -6 0 -14 -26 -45 -32 -35 -7 3 9 2 12 -5 9 -6 -4 -8 -13 -5 -21 3
-7 0 -16 -6 -20 -7 -4 -8 -3 -4 4 4 7 2 12 -4 12 -6 0 -8 5 -5 10 3 6 -1 10
-9 10 -9 0 -15 6 -14 13 2 7 -6 12 -19 11 -13 -1 -20 2 -18 7 3 4 1 10 -4 14
-6 3 -7 13 -4 22 5 12 3 14 -7 8 -10 -6 -12 -4 -6 10 6 16 4 16 -11 4 -15 -13
-16 -12 -11 8 5 19 3 21 -12 13 -21 -11 -34 -2 -19 16 7 9 4 16 -10 26 -12 8
-18 18 -14 22 4 4 -1 4 -12 0 -15 -6 -17 -4 -12 9 5 12 1 17 -13 17 -10 0 -22
5 -26 12 -4 6 -3 8 3 5 6 -4 14 0 17 9 3 8 2 13 -2 10 -4 -2 -16 3 -27 11 -19
15 -19 15 5 8 17 -4 21 -3 12 3 -8 5 -15 26 -16 46 -2 20 -6 39 -11 44 -4 4
-5 2 -1 -5 3 -6 3 -14 -2 -17 -4 -2 -8 6 -8 20 0 16 4 23 13 20 7 -3 13 -1 13
4 0 6 -7 10 -15 10 -8 0 -15 5 -15 11 0 5 4 8 9 4 5 -3 13 0 17 6 4 8 3 9 -4
5 -7 -4 -13 -2 -13 3 -1 6 -2 16 -3 21 0 6 -4 10 -8 10 -5 0 -11 0 -14 0 -4 0
0 -8 7 -17 11 -15 9 -14 -9 1 -19 17 -25 18 -50 6 -15 -7 -30 -13 -33 -12 -4
1 -5 -12 -4 -29 2 -24 0 -29 -15 -24 -21 7 -36 -10 -19 -21 8 -4 9 -3 5 4 -4
7 -2 12 3 12 6 0 11 -10 11 -22 0 -12 -3 -18 -7 -15 -3 4 -13 -3 -22 -15 -18
-26 -24 -51 -10 -42 5 3 9 -2 9 -10 0 -10 -6 -13 -17 -10 -15 5 -15 4 -4 -4
18 -13 23 -40 9 -49 -7 -4 -8 -1 -3 7 5 8 4 11 -2 7 -6 -4 -8 -18 -6 -32 3
-14 10 -22 16 -18 6 3 7 1 3 -6 -4 -6 -11 -9 -16 -6 -5 3 -12 0 -16 -6 -4 -8
-3 -9 4 -5 7 4 12 1 12 -9 0 -9 -4 -14 -9 -11 -11 7 -9 -13 3 -32 4 -7 2 -19
-5 -28 -7 -8 -8 -14 -3 -13 5 1 15 1 23 0 11 -1 11 -4 0 -18 -8 -9 -9 -14 -3
-10 13 8 27 -19 18 -34 -3 -5 -2 -9 3 -8 22 4 33 -3 33 -20 0 -11 -4 -23 -10
-26 -5 -3 -10 -11 -10 -16 0 -6 7 -3 16 5 19 20 21 20 21 1 0 -8 -5 -15 -11
-15 -5 0 -1 -6 9 -14 11 -8 24 -12 30 -9 5 3 4 0 -2 -8 -17 -17 -17 -32 0 -23
9 6 9 4 -1 -8 -10 -13 -10 -18 -1 -24 8 -5 9 -3 4 6 -5 9 -4 11 4 6 9 -6 9
-11 1 -21 -8 -10 -8 -15 1 -21 7 -4 9 -3 6 3 -3 5 0 10 8 10 10 0 11 -5 4 -19
-5 -10 -6 -18 -1 -18 5 0 9 -7 9 -15 0 -13 -4 -12 -21 2 -17 15 -18 15 -8 1
10 -13 10 -17 0 -21 -9 -4 -9 -6 2 -7 10 0 6 -6 -10 -15 l-25 -15 30 5 30 5
-33 -15 c-26 -12 -31 -19 -23 -29 8 -9 7 -13 -4 -13 -17 0 -28 24 -18 39 4 7
1 8 -6 4 -7 -5 -10 -14 -7 -22 3 -8 0 -11 -9 -7 -8 3 -12 10 -8 17 4 6 -1 5
-10 -3 -15 -12 -17 -11 -17 2 0 9 -5 19 -10 22 -7 4 -9 -3 -5 -22 l6 -28 -14
24 c-12 20 -15 21 -20 7 -4 -9 -12 -16 -18 -16 -8 0 -7 6 2 18 13 15 12 16 -3
3 -10 -7 -18 -19 -18 -27 0 -7 -4 -16 -10 -19 -5 -3 -7 0 -4 8 3 8 -2 14 -11
14 -9 0 -14 -6 -11 -14 3 -7 0 -13 -5 -13 -6 0 -9 -9 -6 -19 3 -13 1 -18 -9
-14 -7 2 -21 0 -31 -7 -16 -10 -16 -10 4 -5 18 5 22 3 17 -9 -3 -9 -11 -13
-17 -9 -6 4 -8 0 -4 -11 4 -9 3 -15 -2 -12 -5 3 -14 -1 -21 -9 -7 -8 -16 -12
-21 -9 -5 3 -9 -6 -9 -20 0 -13 3 -26 8 -29 4 -2 2 -2 -5 -1 -7 2 -15 -2 -19
-8 -4 -6 -3 -8 4 -4 15 9 44 -23 37 -42 -3 -8 0 -22 7 -30 7 -9 8 -13 2 -9 -7
4 -11 -6 -11 -28 0 -22 5 -35 13 -35 18 0 27 -17 13 -26 -8 -4 -9 -3 -5 4 4 7
3 12 -3 12 -10 0 -9 -39 2 -57 4 -6 3 -14 -3 -18 -6 -4 -8 -10 -6 -14 3 -4 6
-25 7 -47 3 -44 15 -67 33 -58 6 3 1 -3 -11 -14 -25 -22 -19 -39 6 -19 14 10
14 10 3 -5 -7 -9 -12 -22 -11 -30 3 -28 -1 -39 -13 -32 -7 4 -2 -5 12 -21 14
-16 19 -25 13 -21 -9 5 -13 0 -13 -13 0 -10 6 -22 13 -24 6 -3 -3 -4 -21 -2
-26 2 -32 -1 -27 -12 4 -11 1 -13 -11 -9 -15 6 -15 4 -3 -10 12 -15 11 -16
-11 -9 -23 7 -24 7 -10 -10 9 -11 10 -16 3 -11 -7 4 -13 2 -13 -3 0 -6 8 -11
18 -12 13 0 12 -2 -5 -9 -16 -7 -21 -14 -16 -26 5 -13 3 -15 -7 -9 -8 5 -11 4
-6 -3 3 -6 -2 -16 -11 -22 -17 -11 -17 -11 0 -6 12 4 17 2 14 -6 -2 -7 -15
-12 -28 -11 -24 3 -24 3 -2 -7 15 -6 21 -15 17 -25 -5 -12 -2 -14 12 -8 16 6
17 5 6 -9 -8 -10 -9 -19 -3 -22 5 -4 15 2 21 11 10 16 11 16 7 -3 -4 -18 0
-21 25 -18 16 2 27 0 24 -5 -3 -4 6 -7 19 -5 14 1 23 -2 19 -7 -3 -5 -10 -6
-16 -3 -7 4 -8 2 -4 -4 4 -6 14 -8 23 -5 12 5 14 3 8 -8 -8 -12 -6 -12 8 0 14
11 17 11 18 0 1 -8 1 -18 0 -22 -1 -5 3 -6 9 -2 6 3 7 12 3 18 -3 7 4 3 16 -7
16 -15 20 -16 16 -4 -4 10 1 17 13 20 11 3 19 0 19 -8 0 -7 -5 -10 -10 -7 -6
3 -7 1 -3 -6 6 -9 11 -9 22 0 11 9 14 9 14 0 0 -7 6 -9 13 -5 9 5 9 4 0 -6
-15 -17 2 -54 20 -43 7 4 5 -2 -3 -12 -8 -10 -10 -16 -3 -12 12 7 27 -23 32
-64 0 -5 6 -7 11 -4 6 3 10 3 11 -2 2 -28 9 -47 20 -57 9 -8 9 -6 0 12 -8 14
-8 22 -1 22 5 0 10 -4 10 -10 0 -5 6 -8 13 -6 6 1 9 1 5 -1 -12 -7 -9 -31 4
-39 6 -4 8 -3 5 3 -3 5 0 10 7 10 8 0 12 -6 9 -13 -6 -15 33 -38 49 -28 7 4 8
3 4 -4 -4 -7 -2 -12 3 -12 6 0 11 -5 11 -12 0 -9 -3 -9 -12 0 -7 7 -16 12 -22
12 -5 0 -1 -6 9 -14 11 -8 24 -12 31 -9 6 2 14 -6 17 -19 5 -18 9 -20 19 -10
16 16 29 15 22 -1 -3 -8 2 -14 11 -14 8 0 15 5 15 10 0 6 3 7 6 4 4 -4 1 -13
-5 -21 -10 -12 -9 -14 8 -9 14 3 21 1 21 -8 0 -11 2 -11 10 1 6 10 10 11 10 3
0 -7 7 -13 15 -13 8 0 25 -5 39 -12 20 -9 23 -14 15 -25 -9 -11 -8 -12 5 -7 9
3 16 10 16 15 0 5 5 9 11 9 5 0 7 -4 4 -10 -3 -5 0 -10 7 -10 9 0 9 -3 -2 -10
-8 -5 -10 -10 -4 -10 6 0 14 3 18 7 12 12 43 10 43 -3 0 -10 -6 -10 -21 -3
-20 10 -20 10 -2 -5 16 -13 22 -13 35 -3 9 8 12 8 8 1 -4 -7 0 -15 9 -18 23
-9 31 -7 14 4 -13 8 -13 11 -1 22 10 10 12 10 7 0 -8 -14 28 -12 41 3 5 4 3 5
-4 1 -6 -3 -14 -2 -17 2 -3 5 13 8 35 8 33 -1 37 1 24 10 -13 10 -12 12 10 12
14 0 22 -5 18 -11 -3 -6 -1 -7 5 -3 7 4 12 14 12 21 0 9 6 12 17 8 9 -4 14 -2
10 3 -3 6 7 9 23 8 32 -2 56 18 45 37 -5 7 0 7 16 -2 22 -11 23 -11 10 5 -12
14 -12 16 3 10 9 -3 16 -11 16 -18 0 -6 6 0 13 14 8 15 21 25 34 24 17 0 20 3
13 16 -6 12 -5 17 5 17 8 0 12 -3 10 -7 -2 -4 2 -7 10 -7 19 0 19 2 -2 23 -17
17 -17 17 -1 11 10 -3 20 -2 24 4 3 6 12 8 18 6 7 -3 13 1 14 9 1 8 3 21 4 29
1 11 5 12 14 4 10 -8 12 -4 8 18 -3 21 -2 24 5 13 8 -12 13 -12 22 -3 9 9 9
15 0 27 -9 11 -9 16 0 22 7 4 9 3 6 -3 -4 -6 2 -13 13 -16 11 -3 23 0 27 5 3
6 1 8 -4 5 -6 -4 -13 0 -17 8 -3 10 1 15 12 16 10 0 12 3 5 6 -10 3 -10 7 0
18 7 7 14 12 17 10 3 -2 5 10 6 26 1 17 -3 26 -9 22 -6 -3 -7 -1 -3 6 6 9 11
9 22 0 9 -7 14 -8 13 -3 -6 31 24 38 57 13 6 -5 11 -3 11 6 0 8 -5 11 -11 8
-6 -3 -7 -2 -3 2 12 14 38 15 30 2 -3 -7 -3 -9 2 -5 4 4 15 2 24 -4 13 -10 14
-10 4 2 -18 20 -16 35 2 20 13 -11 14 -10 9 4 -8 21 5 21 22 -1 12 -16 13 -16
8 -1 -3 10 2 20 15 28 16 8 21 8 21 -2 0 -8 5 -5 11 5 8 14 14 16 25 6 12 -10
13 -9 8 5 -4 11 -2 16 6 14 19 -5 21 34 3 54 -9 10 -19 15 -24 13 -4 -3 -11
-1 -14 5 -4 6 -3 9 2 8 4 -2 8 2 8 7 0 6 -4 9 -8 7 -5 -1 -6 2 -2 8 5 8 11 7
21 -1 8 -6 17 -9 21 -5 3 3 1 6 -6 6 -13 0 -34 46 -33 75 1 25 -18 48 -32 37
-6 -5 -22 -9 -35 -10 -13 0 -22 0 -20 1 2 2 13 9 23 17 16 12 18 12 11 1 -6
-10 -4 -12 4 -6 9 5 7 12 -8 26 -12 11 -21 25 -21 31 0 7 6 4 13 -6 12 -16 13
-16 14 3 1 12 -4 21 -10 21 -8 0 -7 3 2 9 7 5 10 14 7 20 -4 6 -11 9 -15 7 -3
-3 -7 4 -7 15 0 19 1 20 14 2 13 -16 14 -16 8 9 -5 23 -3 27 11 22 13 -4 15
-3 5 4 -8 5 -13 15 -12 23 4 28 0 40 -12 33 -7 -4 -8 -3 -4 5 4 6 12 8 18 5 8
-5 9 -1 5 10 -4 9 -3 15 1 12 4 -2 12 7 19 20 7 16 8 26 1 30 -6 4 -5 10 3 16
10 6 7 7 -8 3 -21 -6 -22 -4 -12 24 6 18 16 28 22 24 6 -3 7 -1 3 6 -6 9 -11
9 -22 1 -7 -7 -19 -10 -26 -7 -8 3 -6 6 6 6 12 1 16 6 12 17 -3 8 -2 13 3 10
5 -3 12 1 15 10 5 12 2 15 -11 10 -15 -5 -15 -4 1 9 11 8 15 15 10 15 -6 0
-11 6 -11 14 0 8 6 12 14 9 7 -3 13 0 13 6 0 6 -6 11 -12 11 -9 0 -8 4 2 10
10 6 11 10 3 10 -7 0 -13 5 -13 11 0 6 6 9 14 6 10 -4 12 0 8 15 -3 14 -1 19
6 14 7 -4 12 -2 12 3 0 6 -5 11 -11 11 -5 0 -7 5 -4 10 4 6 11 7 17 4 13 -8 2
12 -20 38 -10 12 -20 15 -31 9 -12 -7 -22 -3 -38 15 -12 13 -18 24 -14 24 4 0
7 9 7 19 0 16 -3 18 -15 8 -12 -9 -13 -9 -7 1 4 7 1 12 -8 12 -9 0 -16 7 -16
15 0 8 -5 15 -11 15 -5 0 -7 -5 -3 -12 4 -7 3 -8 -5 -4 -6 4 -9 12 -6 17 4 5
3 9 -2 10 -48 5 -75 4 -79 -3 -3 -5 -11 -5 -17 -1 -7 4 -6 0 2 -10 18 -22 9
-22 -17 2 -12 10 -18 21 -15 25 4 4 0 4 -8 1 -20 -7 -43 20 -35 40 3 9 -1 18
-8 21 -8 3 -17 12 -20 20 -4 10 -2 12 6 8 8 -5 9 -2 5 9 -10 26 2 20 13 -5 7
-17 8 -11 5 27 -3 47 -3 49 11 25 l14 -25 -4 28 c-4 24 -2 28 12 22 9 -3 13
-3 9 1 -4 4 -2 13 4 21 9 9 8 13 0 13 -6 0 -11 -4 -11 -10 0 -5 -7 -10 -16
-10 -14 0 -14 1 0 16 15 14 20 28 17 46 0 4 5 5 13 2 8 -3 17 0 22 7 4 8 3 10
-4 5 -20 -12 -13 5 10 23 17 14 18 18 5 18 -9 0 -14 -4 -11 -9 3 -4 0 -8 -5
-8 -20 0 -11 20 12 30 13 5 16 9 7 10 -13 0 -13 1 0 10 12 8 12 10 1 10 -8 0
-11 3 -8 6 4 4 13 2 20 -4 10 -9 14 -8 14 3 0 8 -3 15 -6 15 -3 0 -6 18 -6 39
-1 25 3 37 10 34 5 -4 -1 7 -15 23 -14 15 -17 22 -7 15 9 -8 21 -10 25 -6 4 4
1 10 -6 12 -10 4 -9 10 5 26 12 14 13 17 3 12 -26 -16 -47 -15 -26 1 18 13 15
19 -7 15 -5 -1 -6 3 -2 9 3 6 10 8 15 5 5 -3 12 0 16 6 4 7 3 9 -4 5 -6 -3
-13 -2 -17 4 -4 6 -11 7 -17 4 -7 -4 -8 -2 -4 5 4 6 11 9 16 6 4 -3 10 2 13
10 4 8 1 12 -6 9 -14 -5 -41 57 -29 65 4 4 -6 20 -22 36 l-29 30 22 -32 c12
-18 18 -33 12 -33 -6 0 -11 5 -11 11 0 5 -5 7 -12 3 -7 -4 -8 -3 -4 5 4 6 3
18 -3 25 -7 8 -10 20 -9 27 2 9 -5 13 -21 11 -15 -2 -21 0 -17 7 9 14 5 13
-16 -3z m-865 -43 c-5 -12 -3 -14 7 -8 8 5 11 4 6 -3 -4 -6 -13 -9 -22 -5 -11
4 -12 9 -3 19 15 19 20 18 12 -3z m856 -46 c8 -10 7 -14 -2 -14 -8 0 -14 6
-14 14 0 7 1 13 2 13 2 0 8 -6 14 -13z m-916 -71 c4 -10 1 -13 -8 -9 -8 3 -12
9 -9 14 7 12 11 11 17 -5z m252 -146 c3 -6 -1 -7 -9 -4 -18 7 -21 14 -7 14 6
0 13 -4 16 -10z m470 -108 c-3 -3 -11 0 -18 7 -9 10 -8 11 6 5 10 -3 15 -9 12
-12z m-78 -119 c-4 -3 -3 -11 3 -17 6 -8 2 -12 -13 -13 -17 -2 -19 0 -7 7 8 5
11 10 7 10 -9 0 1 20 10 20 4 0 3 -3 0 -7z m-192 -43 c3 -6 -1 -7 -9 -4 -18 7
-21 14 -7 14 6 0 13 -4 16 -10z m560 -200 c3 -5 1 -10 -4 -10 -6 0 -11 5 -11
10 0 6 2 10 4 10 3 0 8 -4 11 -10z m115 0 c0 -5 -5 -10 -11 -10 -5 0 -7 5 -4
10 3 6 8 10 11 10 2 0 4 -4 4 -10z m-122 -65 c-3 -3 -9 2 -12 12 -6 14 -5 15
5 6 7 -7 10 -15 7 -18z m291 -79 c0 -7 -2 -6 -6 2 -2 6 -8 10 -12 8 -4 -3 -8
1 -8 9 0 11 4 12 14 4 7 -6 13 -17 12 -23z m-1508 -189 c-10 -9 -11 -8 -5 6 3
10 9 15 12 12 3 -3 0 -11 -7 -18z m1478 -123 c-15 -18 -22 -13 -13 10 3 9 10
13 16 10 5 -3 4 -12 -3 -20z m21 -305 c0 -6 -4 -7 -10 -4 -5 3 -10 11 -10 16
0 6 5 7 10 4 6 -3 10 -11 10 -16z m-1475 1 c3 -6 -1 -7 -9 -4 -18 7 -21 14 -7
14 6 0 13 -4 16 -10z m1435 -14 c0 -2 -7 -7 -16 -10 -8 -3 -12 -2 -9 4 6 10
25 14 25 6z m-1505 -100 c0 -18 -3 -22 -13 -14 -9 8 -9 14 -1 24 15 18 14 18
14 -10z m29 -92 c3 -8 2 -12 -4 -9 -6 3 -10 10 -10 16 0 14 7 11 14 -7z m1490
4 c-3 -4 -9 -8 -15 -8 -5 0 -9 4 -9 8 0 5 7 9 15 9 8 0 12 -4 9 -9z m-1376
-43 c-3 -3 -9 2 -12 12 -6 14 -5 15 5 6 7 -7 10 -15 7 -18z m1189 3 c-3 -8 -6
-5 -6 6 -1 11 2 17 5 13 3 -3 4 -12 1 -19z m-1072 -76 c-3 -3 -11 0 -18 7 -9
10 -8 11 6 5 10 -3 15 -9 12 -12z m45 -82 c0 -5 -5 -10 -11 -10 -5 0 -7 5 -4
10 3 6 8 10 11 10 2 0 4 -4 4 -10z m177 -192 c-3 -8 -6 -5 -6 6 -1 11 2 17 5
13 3 -3 4 -12 1 -19z m533 -32 c0 -3 -4 -8 -10 -11 -5 -3 -10 -1 -10 4 0 6 5
11 10 11 6 0 10 -2 10 -4z"/>
<path d="M595 2420 c3 -5 8 -10 11 -10 2 0 4 5 4 10 0 6 -5 10 -11 10 -5 0 -7
-4 -4 -10z"/>
<path d="M1675 2400 c-3 -5 -1 -10 4 -10 6 0 11 5 11 10 0 6 -2 10 -4 10 -3 0
-8 -4 -11 -10z"/>
<path d="M1615 2200 c3 -5 8 -10 11 -10 2 0 4 5 4 10 0 6 -5 10 -11 10 -5 0
-7 -4 -4 -10z"/>
<path d="M1883 2114 c0 -7 6 -10 14 -7 7 3 13 8 13 12 0 4 -6 8 -13 8 -8 0
-14 -6 -14 -13z"/>
<path d="M1130 2066 c0 -2 6 -9 14 -15 11 -9 16 -9 22 0 4 8 3 9 -4 5 -7 -4
-12 -2 -12 3 0 6 -4 11 -10 11 -5 0 -10 -2 -10 -4z"/>
<path d="M843 1869 c-2 -23 3 -25 10 -4 4 8 3 16 -1 19 -4 3 -9 -4 -9 -15z"/>
<path d="M1990 1670 c-9 -6 -10 -10 -3 -10 6 0 15 5 18 10 8 12 4 12 -15 0z"/>
<path d="M2027 1618 c-2 -8 2 -23 10 -33 13 -19 14 -18 9 9 -6 34 -12 41 -19
24z"/>
<path d="M574 1572 c3 -5 0 -12 -6 -15 -7 -2 -10 -7 -7 -11 3 -4 12 0 18 8 9
11 9 16 0 22 -7 4 -9 3 -5 -4z"/>
<path d="M554 1440 c0 -13 4 -16 10 -10 7 7 7 13 0 20 -6 6 -10 3 -10 -10z"/>
<path d="M574 1122 c4 -3 14 -7 22 -8 9 -1 13 0 10 4 -4 3 -14 7 -22 8 -9 1
-13 0 -10 -4z"/>
<path d="M2120 806 c0 -2 7 -9 15 -16 13 -11 14 -10 9 4 -5 14 -24 23 -24 12z"/>
<path d="M1715 391 c-3 -5 -2 -12 3 -15 5 -3 9 1 9 9 0 17 -3 19 -12 6z"/>
<path d="M1150 256 c0 -2 7 -7 16 -10 8 -3 12 -2 9 4 -6 10 -25 14 -25 6z"/>
</g>
</svg>
